<svg xmlns="http://www.w3.org/2000/svg" width="350" height="350" fill="none" viewBox="0 0 350 350"><rect width="350" height="350" fill="#004AAD" rx="175"/><path fill="#fff" d="M268.72 151.018C255.259 162.877 240.556 175.975 227.091 187.834C227.095 187.846 227.103 187.854 227.11 187.865C227.247 188.053 227.376 188.26 227.493 188.49C227.626 188.717 227.728 188.943 227.81 189.166C228.81 191.373 229.392 193.752 229.564 196.15C244.169 183.287 260.017 169.186 274.618 156.318C272.317 154.963 270.294 153.15 268.72 151.018Z"/><path fill="#fff" d="M158.634 151.088C158.423 154.018 157.517 156.834 156.067 159.326C168.306 170.104 181.782 182.119 194.024 192.9C194.657 190.221 195.853 187.693 197.591 185.545C185.017 174.471 171.204 162.162 158.634 151.088Z"/><path fill="#fff" d="M77.2002 193.514C74.1221 191.186 70.2705 189.748 65.8916 189.51C55.2471 188.94 47.5518 198.565 47.0244 208.361C46.4502 219.002 56.0869 226.686 65.8916 227.213C76.1143 227.764 83.5909 218.912 84.6455 209.537C84.7315 209.178 84.7862 208.799 84.7627 208.361C84.7862 207.936 84.7315 207.561 84.6494 207.205C84.3565 204.377 83.5674 201.775 82.333 199.494C96.6612 186.877 111.606 173.639 125.935 161.022C124.255 158.842 123.06 156.299 122.536 153.518C107.63 166.643 92.1065 180.389 77.2002 193.514ZM54.9229 208.361C54.1612 194.225 76.1065 194.299 76.8643 208.361C76.1026 222.486 55.6846 222.486 54.9229 208.361Z"/><path fill="#fff" d="M159.161 148.147C159.142 148.002 159.118 147.854 159.087 147.713C159.079 147.514 159.06 147.311 159.021 147.1C157.231 137.615 148.442 130.932 138.814 131.74C129.021 132.561 121.896 140.893 121.626 150.494C121.591 151.744 121.696 152.959 121.919 154.135C122.439 156.916 123.638 159.459 125.314 161.639C129.028 166.467 135.095 169.506 141.399 169.318C147.966 169.123 153.575 165.283 156.689 159.943C158.138 157.455 159.044 154.639 159.255 151.705C159.337 150.533 159.314 149.342 159.161 148.147ZM141.399 161.428C134.86 162.014 129.841 156.752 129.524 150.494C129.239 144.861 133.892 140.619 139.044 139.604C145.083 138.412 150.087 143.33 151.314 148.775C151.821 155.025 148.044 160.83 141.399 161.428Z"/><path fill="#fff" d="M228.114 187.869C227.997 187.639 227.868 187.436 227.731 187.244C227.724 187.233 227.716 187.225 227.708 187.213C222.228 178.565 211.345 175.783 202.235 180.588C200.13 181.701 198.376 183.19 196.97 184.924C195.231 187.072 194.036 189.604 193.403 192.279C192.267 197.068 192.915 202.326 195.431 206.705C200.415 215.385 211.364 217.725 220.083 213.783C227.333 210.51 230.716 202.924 230.188 195.529C230.017 193.131 229.431 190.752 228.435 188.545C228.345 188.322 228.243 188.096 228.114 187.869ZM216.821 206.596C212.134 209.369 205.798 207.686 202.681 203.389C199.063 198.404 200.435 191.381 205.427 187.889C210.896 184.061 218.095 186.358 221.294 191.85C224.028 197.318 221.989 203.533 216.821 206.596Z"/><path fill="#fff" d="M302.399 140.006C302.122 130.1 293.755 122.619 284.208 122.033C283.997 122.01 283.782 121.994 283.556 122.002C283.325 121.994 283.114 122.01 282.907 122.033C272.985 122.615 265.536 130.104 264.704 140.006C264.341 144.338 265.689 148.365 268.099 151.639C269.673 153.772 271.696 155.58 274.001 156.94C277.345 158.916 281.274 159.94 285.235 159.608C295.274 158.764 302.677 149.916 302.399 140.006ZM285.005 151.744C277.974 153.131 272.427 146.455 272.606 140.006C272.767 134.236 278.103 130.045 283.556 129.893C289.251 130.049 294.017 134.24 294.501 140.006C295.001 145.979 290.63 150.635 285.005 151.744Z"/></svg>