<svg xmlns="http://www.w3.org/2000/svg" width="259" height="157" fill="none" viewBox="0 0 259 157"><path fill="#fff" d="M222.648 29.0938C209.187 40.9531 194.484 54.0508 181.02 65.9102C181.023 65.9219 181.031 65.9297 181.039 65.9414C181.176 66.1289 181.305 66.3359 181.422 66.5664C181.555 66.793 181.656 67.0195 181.738 67.2422C182.738 69.4492 183.32 71.8281 183.492 74.2266C198.098 61.3633 213.945 47.2617 228.547 34.3945C226.246 33.0391 224.223 31.2266 222.648 29.0938Z"/><path fill="#fff" d="M112.562 29.1641C112.352 32.0938 111.445 34.9102 109.996 37.4023C122.234 48.1797 135.711 60.1953 147.953 70.9766C148.586 68.2969 149.781 65.7695 151.52 63.6211C138.945 52.5469 125.133 40.2383 112.562 29.1641Z"/><path fill="#fff" d="M31.1289 71.5898C28.0508 69.2617 24.1992 67.8242 19.8203 67.5859C9.17578 67.0156 1.48047 76.6406 0.953127 86.4375C0.378908 97.0781 10.0156 104.762 19.8203 105.289C30.043 105.84 37.5195 96.9883 38.5742 87.6133C38.6602 87.2539 38.7148 86.875 38.6914 86.4375C38.7148 86.0117 38.6602 85.6367 38.5781 85.2812C38.2852 82.4531 37.4961 79.8516 36.2617 77.5703C50.5898 64.9531 65.5352 51.7148 79.8633 39.0977C78.1836 36.918 76.9883 34.375 76.4648 31.5938C61.5586 44.7188 46.0352 58.4648 31.1289 71.5898ZM8.85156 86.4375C8.08985 72.3008 30.0352 72.375 30.793 86.4375C30.0313 100.562 9.61328 100.562 8.85156 86.4375Z"/><path fill="#fff" d="M113.09 26.2227C113.07 26.0781 113.047 25.9297 113.016 25.7891C113.008 25.5898 112.988 25.3867 112.949 25.1758C111.16 15.6914 102.371 9.00781 92.7422 9.81641C82.9492 10.6367 75.8242 18.9688 75.5547 28.5703C75.5195 29.8203 75.625 31.0352 75.8477 32.2109C76.3672 34.9922 77.5664 37.5352 79.2422 39.7148C82.957 44.543 89.0234 47.582 95.3281 47.3945C101.895 47.1992 107.504 43.3594 110.617 38.0195C112.066 35.5313 112.973 32.7148 113.184 29.7812C113.266 28.6094 113.242 27.418 113.09 26.2227ZM95.3281 39.5039C88.7891 40.0898 83.7695 34.8281 83.4531 28.5703C83.168 22.9375 87.8203 18.6953 92.9727 17.6797C99.0117 16.4883 104.016 21.4063 105.242 26.8516C105.75 33.1016 101.973 38.9063 95.3281 39.5039Z"/><path fill="#fff" d="M182.043 65.9453C181.926 65.7148 181.797 65.5117 181.66 65.3203C181.652 65.3086 181.645 65.3008 181.637 65.2891C176.156 56.6406 165.273 53.8594 156.164 58.6641C154.059 59.7773 152.305 61.2656 150.898 63C149.16 65.1484 147.965 67.6797 147.332 70.3555C146.195 75.1445 146.844 80.4023 149.359 84.7813C154.344 93.4609 165.293 95.8008 174.012 91.8594C181.262 88.5859 184.645 81 184.117 73.6055C183.945 71.207 183.359 68.8281 182.363 66.6211C182.273 66.3984 182.172 66.1719 182.043 65.9453ZM170.75 84.6719C166.062 87.4453 159.727 85.7617 156.609 81.4648C152.992 76.4805 154.363 69.457 159.355 65.9648C164.824 62.1367 172.023 64.4336 175.223 69.9258C177.957 75.3945 175.918 81.6094 170.75 84.6719Z"/><path fill="#fff" d="M256.328 18.082C256.051 8.17579 247.684 0.695315 238.137 0.109378C237.926 0.085941 237.711 0.070315 237.484 0.078128C237.254 0.070315 237.043 0.085941 236.836 0.109378C226.914 0.691409 219.465 8.17969 218.633 18.082C218.27 22.4141 219.617 26.4414 222.027 29.7148C223.602 31.8477 225.625 33.6563 227.93 35.0156C231.273 36.9922 235.203 38.0156 239.164 37.6836C249.203 36.8398 256.605 27.9922 256.328 18.082ZM238.934 29.8203C231.902 31.207 226.355 24.5313 226.535 18.082C226.695 12.3125 232.031 8.1211 237.484 7.96875C243.18 8.125 247.945 12.3164 248.43 18.082C248.93 24.0547 244.559 28.7109 238.934 29.8203Z"/><path fill="#fff" d="M21.6921 140.59C21.6921 138.81 21.9521 137.24 22.4721 135.88C23.0121 134.52 23.7321 133.39 24.6321 132.49C25.5521 131.57 26.6121 130.88 27.8121 130.42C29.0321 129.96 30.3221 129.73 31.6821 129.73C33.0221 129.73 34.2821 129.96 35.4621 130.42C36.6621 130.88 37.7121 131.57 38.6121 132.49C39.5121 133.39 40.2221 134.52 40.7421 135.88C41.2821 137.24 41.5521 138.81 41.5521 140.59C41.5521 142.37 41.2821 143.94 40.7421 145.3C40.2221 146.66 39.5121 147.8 38.6121 148.72C37.7121 149.62 36.6621 150.3 35.4621 150.76C34.2821 151.22 33.0221 151.45 31.6821 151.45C30.3221 151.45 29.0321 151.22 27.8121 150.76C26.6121 150.3 25.5521 149.62 24.6321 148.72C23.7321 147.8 23.0121 146.66 22.4721 145.3C21.9521 143.94 21.6921 142.37 21.6921 140.59ZM24.7521 140.59C24.7521 141.85 24.9121 143 25.2321 144.04C25.5521 145.06 26.0021 145.93 26.5821 146.65C27.1821 147.37 27.9021 147.93 28.7421 148.33C29.6021 148.71 30.5621 148.9 31.6221 148.9C32.6821 148.9 33.6321 148.71 34.4721 148.33C35.3121 147.93 36.0221 147.37 36.6021 146.65C37.2021 145.93 37.6621 145.06 37.9821 144.04C38.3021 143 38.4621 141.85 38.4621 140.59C38.4621 139.33 38.3021 138.19 37.9821 137.17C37.6621 136.13 37.2021 135.25 36.6021 134.53C36.0221 133.81 35.3121 133.26 34.4721 132.88C33.6321 132.48 32.6821 132.28 31.6221 132.28C30.5621 132.28 29.6021 132.48 28.7421 132.88C27.9021 133.26 27.1821 133.81 26.5821 134.53C26.0021 135.25 25.5521 136.13 25.2321 137.17C24.9121 138.19 24.7521 139.33 24.7521 140.59ZM56.5318 143.23C56.5318 141.41 56.0818 140.01 55.1818 139.03C54.2818 138.05 53.0818 137.56 51.5818 137.56C50.7418 137.56 50.0818 137.59 49.6018 137.65C49.1418 137.71 48.7718 137.78 48.4918 137.86V147.7C48.8318 147.98 49.3218 148.25 49.9618 148.51C50.6018 148.77 51.3018 148.9 52.0618 148.9C52.8618 148.9 53.5418 148.76 54.1018 148.48C54.6818 148.18 55.1518 147.78 55.5118 147.28C55.8718 146.76 56.1318 146.16 56.2918 145.48C56.4518 144.78 56.5318 144.03 56.5318 143.23ZM59.4418 143.23C59.4418 144.41 59.2818 145.5 58.9618 146.5C58.6618 147.5 58.2118 148.36 57.6118 149.08C57.0118 149.8 56.2718 150.36 55.3918 150.76C54.5318 151.16 53.5418 151.36 52.4218 151.36C51.5218 151.36 50.7218 151.24 50.0218 151C49.3418 150.76 48.8318 150.53 48.4918 150.31V156.55H45.7018V135.88C46.3618 135.72 47.1818 135.55 48.1618 135.37C49.1618 135.17 50.3118 135.07 51.6118 135.07C52.8118 135.07 53.8918 135.26 54.8518 135.64C55.8118 136.02 56.6318 136.56 57.3118 137.26C57.9918 137.96 58.5118 138.82 58.8718 139.84C59.2518 140.84 59.4418 141.97 59.4418 143.23ZM62.4978 143.23C62.4978 141.85 62.6978 140.65 63.0978 139.63C63.4978 138.59 64.0278 137.73 64.6878 137.05C65.3478 136.37 66.1078 135.86 66.9678 135.52C67.8278 135.18 68.7078 135.01 69.6078 135.01C71.7078 135.01 73.3178 135.67 74.4378 136.99C75.5578 138.29 76.1178 140.28 76.1178 142.96C76.1178 143.08 76.1178 143.24 76.1178 143.44C76.1178 143.62 76.1078 143.79 76.0878 143.95H65.4078C65.5278 145.57 65.9978 146.8 66.8178 147.64C67.6378 148.48 68.9178 148.9 70.6578 148.9C71.6378 148.9 72.4578 148.82 73.1178 148.66C73.7978 148.48 74.3078 148.31 74.6478 148.15L75.0378 150.49C74.6978 150.67 74.0978 150.86 73.2378 151.06C72.3978 151.26 71.4378 151.36 70.3578 151.36C68.9978 151.36 67.8178 151.16 66.8178 150.76C65.8378 150.34 65.0278 149.77 64.3878 149.05C63.7478 148.33 63.2678 147.48 62.9478 146.5C62.6478 145.5 62.4978 144.41 62.4978 143.23ZM73.2078 141.7C73.2278 140.44 72.9078 139.41 72.2478 138.61C71.6078 137.79 70.7178 137.38 69.5778 137.38C68.9378 137.38 68.3678 137.51 67.8678 137.77C67.3878 138.01 66.9778 138.33 66.6378 138.73C66.2978 139.13 66.0278 139.59 65.8278 140.11C65.6478 140.63 65.5278 141.16 65.4678 141.7H73.2078ZM80.1256 135.85C80.7656 135.69 81.6156 135.52 82.6756 135.34C83.7356 135.16 84.9556 135.07 86.3356 135.07C87.5756 135.07 88.6056 135.25 89.4256 135.61C90.2456 135.95 90.8956 136.44 91.3756 137.08C91.8756 137.7 92.2256 138.45 92.4256 139.33C92.6256 140.21 92.7256 141.18 92.7256 142.24V151H89.9356V142.84C89.9356 141.88 89.8656 141.06 89.7256 140.38C89.6056 139.7 89.3956 139.15 89.0956 138.73C88.7956 138.31 88.3956 138.01 87.8956 137.83C87.3956 137.63 86.7756 137.53 86.0356 137.53C85.7356 137.53 85.4256 137.54 85.1056 137.56C84.7856 137.58 84.4756 137.61 84.1756 137.65C83.8956 137.67 83.6356 137.7 83.3956 137.74C83.1756 137.78 83.0156 137.81 82.9156 137.83V151H80.1256V135.85ZM103.052 130C105.972 130 108.212 130.56 109.772 131.68C111.352 132.78 112.142 134.43 112.142 136.63C112.142 137.83 111.922 138.86 111.482 139.72C111.062 140.56 110.442 141.25 109.622 141.79C108.822 142.31 107.842 142.69 106.682 142.93C105.522 143.17 104.212 143.29 102.752 143.29H100.442V151H97.5321V130.51C98.3521 130.31 99.2621 130.18 100.262 130.12C101.282 130.04 102.212 130 103.052 130ZM103.292 132.55C102.052 132.55 101.102 132.58 100.442 132.64V140.8H102.632C103.632 140.8 104.532 140.74 105.332 140.62C106.132 140.48 106.802 140.26 107.342 139.96C107.902 139.64 108.332 139.21 108.632 138.67C108.932 138.13 109.082 137.44 109.082 136.6C109.082 135.8 108.922 135.14 108.602 134.62C108.302 134.1 107.882 133.69 107.342 133.39C106.822 133.07 106.212 132.85 105.512 132.73C104.812 132.61 104.072 132.55 103.292 132.55ZM121.364 135.07C121.604 135.07 121.874 135.09 122.174 135.13C122.494 135.15 122.804 135.19 123.104 135.25C123.404 135.29 123.674 135.34 123.914 135.4C124.174 135.44 124.364 135.48 124.484 135.52L124.004 137.95C123.784 137.87 123.414 137.78 122.894 137.68C122.394 137.56 121.744 137.5 120.944 137.5C120.424 137.5 119.904 137.56 119.384 137.68C118.884 137.78 118.554 137.85 118.394 137.89V151H115.604V136.06C116.264 135.82 117.084 135.6 118.064 135.4C119.044 135.18 120.144 135.07 121.364 135.07ZM140.946 143.2C140.946 144.44 140.766 145.56 140.406 146.56C140.046 147.56 139.536 148.42 138.876 149.14C138.236 149.86 137.466 150.42 136.566 150.82C135.666 151.2 134.686 151.39 133.626 151.39C132.566 151.39 131.586 151.2 130.686 150.82C129.786 150.42 129.006 149.86 128.346 149.14C127.706 148.42 127.206 147.56 126.846 146.56C126.486 145.56 126.306 144.44 126.306 143.2C126.306 141.98 126.486 140.87 126.846 139.87C127.206 138.85 127.706 137.98 128.346 137.26C129.006 136.54 129.786 135.99 130.686 135.61C131.586 135.21 132.566 135.01 133.626 135.01C134.686 135.01 135.666 135.21 136.566 135.61C137.466 135.99 138.236 136.54 138.876 137.26C139.536 137.98 140.046 138.85 140.406 139.87C140.766 140.87 140.946 141.98 140.946 143.2ZM138.036 143.2C138.036 141.44 137.636 140.05 136.836 139.03C136.056 137.99 134.986 137.47 133.626 137.47C132.266 137.47 131.186 137.99 130.386 139.03C129.606 140.05 129.216 141.44 129.216 143.2C129.216 144.96 129.606 146.36 130.386 147.4C131.186 148.42 132.266 148.93 133.626 148.93C134.986 148.93 136.056 148.42 136.836 147.4C137.636 146.36 138.036 144.96 138.036 143.2ZM142.322 156.61C142.082 156.61 141.772 156.58 141.392 156.52C141.012 156.46 140.692 156.38 140.432 156.28L140.792 154C140.992 154.06 141.222 154.11 141.482 154.15C141.742 154.19 141.982 154.21 142.202 154.21C143.162 154.21 143.842 153.91 144.242 153.31C144.662 152.73 144.872 151.87 144.872 150.73V135.4H147.662V150.7C147.662 152.7 147.202 154.18 146.282 155.14C145.382 156.12 144.062 156.61 142.322 156.61ZM146.252 132.58C145.752 132.58 145.322 132.42 144.962 132.1C144.622 131.76 144.452 131.31 144.452 130.75C144.452 130.19 144.622 129.75 144.962 129.43C145.322 129.09 145.752 128.92 146.252 128.92C146.752 128.92 147.172 129.09 147.512 129.43C147.872 129.75 148.052 130.19 148.052 130.75C148.052 131.31 147.872 131.76 147.512 132.1C147.172 132.42 146.752 132.58 146.252 132.58ZM151.59 143.23C151.59 141.85 151.79 140.65 152.19 139.63C152.59 138.59 153.12 137.73 153.78 137.05C154.44 136.37 155.2 135.86 156.06 135.52C156.92 135.18 157.8 135.01 158.7 135.01C160.8 135.01 162.41 135.67 163.53 136.99C164.65 138.29 165.21 140.28 165.21 142.96C165.21 143.08 165.21 143.24 165.21 143.44C165.21 143.62 165.2 143.79 165.18 143.95H154.5C154.62 145.57 155.09 146.8 155.91 147.64C156.73 148.48 158.01 148.9 159.75 148.9C160.73 148.9 161.55 148.82 162.21 148.66C162.89 148.48 163.4 148.31 163.74 148.15L164.13 150.49C163.79 150.67 163.19 150.86 162.33 151.06C161.49 151.26 160.53 151.36 159.45 151.36C158.09 151.36 156.91 151.16 155.91 150.76C154.93 150.34 154.12 149.77 153.48 149.05C152.84 148.33 152.36 147.48 152.04 146.5C151.74 145.5 151.59 144.41 151.59 143.23ZM162.3 141.7C162.32 140.44 162 139.41 161.34 138.61C160.7 137.79 159.81 137.38 158.67 137.38C158.03 137.38 157.46 137.51 156.96 137.77C156.48 138.01 156.07 138.33 155.73 138.73C155.39 139.13 155.12 139.59 154.92 140.11C154.74 140.63 154.62 141.16 154.56 141.7H162.3ZM175.997 151.36C174.737 151.36 173.627 151.16 172.667 150.76C171.727 150.36 170.927 149.8 170.267 149.08C169.627 148.36 169.147 147.51 168.827 146.53C168.507 145.53 168.347 144.43 168.347 143.23C168.347 142.03 168.517 140.93 168.857 139.93C169.217 138.93 169.717 138.07 170.357 137.35C170.997 136.61 171.777 136.04 172.697 135.64C173.637 135.22 174.677 135.01 175.817 135.01C176.517 135.01 177.217 135.07 177.917 135.19C178.617 135.31 179.287 135.5 179.927 135.76L179.297 138.13C178.877 137.93 178.387 137.77 177.827 137.65C177.287 137.53 176.707 137.47 176.087 137.47C174.527 137.47 173.327 137.96 172.487 138.94C171.667 139.92 171.257 141.35 171.257 143.23C171.257 144.07 171.347 144.84 171.527 145.54C171.727 146.24 172.027 146.84 172.427 147.34C172.847 147.84 173.377 148.23 174.017 148.51C174.657 148.77 175.437 148.9 176.357 148.9C177.097 148.9 177.767 148.83 178.367 148.69C178.967 148.55 179.437 148.4 179.777 148.24L180.167 150.58C180.007 150.68 179.777 150.78 179.477 150.88C179.177 150.96 178.837 151.03 178.457 151.09C178.077 151.17 177.667 151.23 177.227 151.27C176.807 151.33 176.397 151.36 175.997 151.36ZM185.773 135.4H191.683V137.74H185.773V144.94C185.773 145.72 185.833 146.37 185.953 146.89C186.073 147.39 186.253 147.79 186.493 148.09C186.733 148.37 187.033 148.57 187.393 148.69C187.753 148.81 188.173 148.87 188.653 148.87C189.493 148.87 190.163 148.78 190.663 148.6C191.183 148.4 191.543 148.26 191.743 148.18L192.283 150.49C192.003 150.63 191.513 150.8 190.813 151C190.113 151.22 189.313 151.33 188.413 151.33C187.353 151.33 186.473 151.2 185.773 150.94C185.093 150.66 184.543 150.25 184.123 149.71C183.703 149.17 183.403 148.51 183.223 147.73C183.063 146.93 182.983 146.01 182.983 144.97V131.05L185.773 130.57V135.4ZM198.863 148.99C200.003 148.99 200.843 148.84 201.383 148.54C201.943 148.24 202.223 147.76 202.223 147.1C202.223 146.42 201.953 145.88 201.413 145.48C200.873 145.08 199.983 144.63 198.743 144.13C198.143 143.89 197.563 143.65 197.003 143.41C196.463 143.15 195.993 142.85 195.593 142.51C195.193 142.17 194.873 141.76 194.633 141.28C194.393 140.8 194.273 140.21 194.273 139.51C194.273 138.13 194.783 137.04 195.803 136.24C196.823 135.42 198.213 135.01 199.973 135.01C200.413 135.01 200.853 135.04 201.293 135.1C201.733 135.14 202.143 135.2 202.523 135.28C202.903 135.34 203.233 135.41 203.513 135.49C203.813 135.57 204.043 135.64 204.203 135.7L203.693 138.1C203.393 137.94 202.923 137.78 202.283 137.62C201.643 137.44 200.873 137.35 199.973 137.35C199.193 137.35 198.513 137.51 197.933 137.83C197.353 138.13 197.063 138.61 197.063 139.27C197.063 139.61 197.123 139.91 197.243 140.17C197.383 140.43 197.583 140.67 197.843 140.89C198.123 141.09 198.463 141.28 198.863 141.46C199.263 141.64 199.743 141.83 200.303 142.03C201.043 142.31 201.703 142.59 202.283 142.87C202.863 143.13 203.353 143.44 203.753 143.8C204.173 144.16 204.493 144.6 204.713 145.12C204.933 145.62 205.043 146.24 205.043 146.98C205.043 148.42 204.503 149.51 203.423 150.25C202.363 150.99 200.843 151.36 198.863 151.36C197.483 151.36 196.403 151.24 195.623 151C194.843 150.78 194.313 150.61 194.033 150.49L194.543 148.09C194.863 148.21 195.373 148.39 196.073 148.63C196.773 148.87 197.703 148.99 198.863 148.99ZM211.922 149.38C211.922 149.92 211.742 150.39 211.382 150.79C211.022 151.19 210.532 151.39 209.912 151.39C209.292 151.39 208.802 151.19 208.442 150.79C208.082 150.39 207.902 149.92 207.902 149.38C207.902 148.84 208.082 148.37 208.442 147.97C208.802 147.57 209.292 147.37 209.912 147.37C210.532 147.37 211.022 147.57 211.382 147.97C211.742 148.37 211.922 148.84 211.922 149.38ZM216.184 130.21H219.094V151H216.184V130.21ZM241.311 140.59C241.311 142.39 241.031 143.96 240.471 145.3C239.911 146.62 239.121 147.72 238.101 148.6C237.081 149.46 235.861 150.11 234.441 150.55C233.021 150.97 231.461 151.18 229.761 151.18C228.921 151.18 227.991 151.14 226.971 151.06C225.971 151 225.061 150.87 224.241 150.67V130.51C225.061 130.31 225.971 130.18 226.971 130.12C227.991 130.04 228.921 130 229.761 130C231.461 130 233.021 130.22 234.441 130.66C235.861 131.08 237.081 131.73 238.101 132.61C239.121 133.47 239.911 134.57 240.471 135.91C241.031 137.23 241.311 138.79 241.311 140.59ZM230.001 148.63C232.761 148.63 234.821 147.93 236.181 146.53C237.541 145.11 238.221 143.13 238.221 140.59C238.221 138.05 237.541 136.08 236.181 134.68C234.821 133.26 232.761 132.55 230.001 132.55C229.181 132.55 228.541 132.56 228.081 132.58C227.641 132.6 227.331 132.62 227.151 132.64V148.54C227.331 148.56 227.641 148.58 228.081 148.6C228.541 148.62 229.181 148.63 230.001 148.63Z"/></svg>